<svg width="24" height="24" viewBox="0 0 24 24" fill="none" xmlns="http://www.w3.org/2000/svg">
<circle cx="12" cy="12" r="12" fill="#2D3132"/>
<path d="M17.1548 7.75531L15.2373 6.64906L16.2448 6.06906C16.3136 6.02906 16.3986 6.02906 16.4686 6.06906L17.9348 6.91531C18.0836 7.00156 18.0836 7.21531 17.9348 7.30156L17.1536 7.75531H17.1548ZM8.96609 10.3953V12.1266C8.96609 12.2991 9.15234 12.4066 9.30109 12.3203L16.8198 7.95156L14.9011 6.84406L9.07734 10.2028C9.00859 10.2428 8.96484 10.3166 8.96484 10.3966M10.4098 14.6353L11.9436 15.5178C12.0123 15.5578 12.0973 15.5578 12.1673 15.5178L17.9311 12.1916V9.87656L10.4098 14.2478C10.2611 14.3341 10.2623 14.5491 10.4098 14.6341M19.2661 11.4203C19.3348 11.3803 19.3773 11.3066 19.3773 11.2266V9.42281C19.3773 9.25031 19.1911 9.14281 19.0411 9.23031L18.2661 9.68031V11.9966L19.2661 11.4203Z" fill="url(#paint0_linear_3823_45770)"/>
<path d="M11.9734 20.5567L11.9759 20.5592L14.1034 19.3292H14.1022L19.3609 16.2929V13.8354L18.2684 14.4654L17.9309 14.6604L13.8884 16.9942L11.9734 18.1004L6.71469 15.0642V8.99668L12.6722 5.55668L13.0097 5.36293L14.1022 4.73168L11.9734 3.50293L4.58594 7.76793V16.2929L11.9734 20.5567Z" fill="url(#paint1_linear_3823_45770)"/>
<defs>
<linearGradient id="paint0_linear_3823_45770" x1="8.96484" y1="10.7928" x2="19.3798" y2="10.7928" gradientUnits="userSpaceOnUse">
<stop stop-color="#F3F5F4"/>
<stop offset="1" stop-color="#F3F5F4"/>
</linearGradient>
<linearGradient id="paint1_linear_3823_45770" x1="6.14844" y1="17.8554" x2="16.6872" y2="7.31668" gradientUnits="userSpaceOnUse">
<stop stop-color="#D6A151"/>
<stop offset="0.13" stop-color="#D39D4C"/>
<stop offset="0.26" stop-color="#CD9240"/>
<stop offset="0.31" stop-color="#CA8B39"/>
<stop offset="0.72" stop-color="#F5D16F"/>
<stop offset="1" stop-color="#D8AA4D"/>
</linearGradient>
</defs>
</svg>
