<?xml version="1.0" encoding="UTF-8" standalone="no"?>
<!-- Created with Inkscape (http://www.inkscape.org/) -->

<svg
   version="1.1"
   id="svg2"
   width="24"
   height="24"
   viewBox="0 0 304.82401 304.43732"
   xmlns="http://www.w3.org/2000/svg"
>
   <defs id="defs6">
      <clipPath
         clipPathUnits="userSpaceOnUse"
         id="clipPath16"
      >
         <path
            d="M 0,228.328 H 228.618 V 0 H 0 Z"
            id="path14"
         />
      </clipPath>
      <clipPath
         clipPathUnits="userSpaceOnUse"
         id="clipPath26"
      >
         <path
            d="M 0,228.328 H 228.618 V 0 H 0 Z"
            id="path24"
         />
      </clipPath>
   </defs>
   <g
      id="g8"
      transform="matrix(1.3333333,0,0,-1.3333333,0,304.43733)"
   >
      <g id="g10">
         <g
            id="g12"
            clip-path="url(#clipPath16)"
         >
            <path
               d="M 142.357,85.767 H 85.834 v 56.786 h 56.523 z m 85.287,95.035 c -2.337,13.521 -9.77,26.323 -20.555,34.839 -10.009,8.232 -22.835,12.655 -35.775,12.666 -38.374,0.012 -76.781,0.046 -115.155,-0.011 C 36.128,228.068 17.203,216.474 7.456,199.054 2.041,189.705 0.011,179.194 0,168.478 0.023,133.524 -0.011,98.548 0.011,63.594 -0.057,55.465 0.296,47.656 2.839,39.858 8.493,21.788 23.747,7.161 41.965,2.066 c -5.507,4.389 -7.946,10.499 -9.736,17.112 -3.705,14.501 -3.99,29.561 -3.397,44.416 -0.057,34.965 0.022,69.93 -0.046,104.884 0.057,6.019 0.502,11.674 3.58,16.998 4.742,8.493 13.988,14.171 23.793,14.045 36.47,0.023 72.986,-0.011 109.455,0.012 5.507,-0.012 10.511,0.399 15.779,-1.597 8.755,-2.906 15.698,-10.738 17.613,-19.745 1.083,-5.29 0.798,-11.161 0.809,-16.553 V 59.034 c 0,-5.039 -0.558,-9.964 -2.724,-14.57 -4.469,-9.348 -14.136,-15.835 -24.613,-15.642 -28.867,-0.045 -57.767,0.012 -86.633,-0.022 -0.056,9.405 -0.045,18.822 -0.011,28.238 23.564,0 47.118,0.035 70.683,-0.022 5.073,-0.274 10.91,2.291 13.247,6.965 1.322,2.383 1.539,4.926 1.596,7.582 -0.023,28.512 -0.011,57.013 -0.011,85.526 0.228,5.278 -2.326,9.987 -7,12.495 -3.899,2.268 -8.072,1.687 -12.415,1.767 -26.974,-0.068 -53.981,0.034 -80.943,-0.057 -7.719,0.194 -14.148,-6.521 -13.909,-14.205 -0.114,-40.962 0,-82.152 -0.057,-123.136 0.217,-8.14 -0.046,-15.858 4.674,-22.904 3.58,-5.825 9.634,-8.778 16.143,-10.067 7.696,-1.242 15.06,-0.946 22.79,-0.957 23.564,-0.011 47.118,0.011 70.682,-0.023 11.72,-0.103 23.132,3.694 32.754,10.318 10.317,7.604 18.321,18.092 22.003,30.45 2.542,8.357 2.496,16.474 2.542,25.104 0,32.685 0.012,65.359 0,98.044 -0.046,5.609 -0.102,11.332 -0.969,16.884"
               style="fill:#46d593;fill-opacity:1;fill-rule:nonzero;stroke:none"
               id="path18"
            />
         </g>
      </g>
      <g id="g20">
         <g
            id="g22"
            clip-path="url(#clipPath26)"
         >
            <path
               d="M 142.357,85.767 H 85.834 v 56.786 h 56.523 z m 85.287,95.035 c -2.337,13.521 -9.77,26.323 -20.555,34.839 -10.009,8.232 -22.835,12.655 -35.775,12.666 -38.374,0.012 -76.781,0.046 -115.155,-0.011 C 36.128,228.068 17.203,216.474 7.456,199.054 2.041,189.705 0.011,179.194 0,168.478 0.023,133.524 -0.011,98.548 0.011,63.594 -0.057,55.465 0.296,47.656 2.839,39.858 8.493,21.788 23.747,7.161 41.965,2.066 c -5.507,4.389 -7.946,10.499 -9.736,17.112 -3.705,14.501 -3.99,29.561 -3.397,44.416 -0.057,34.965 0.022,69.93 -0.046,104.884 0.057,6.019 0.502,11.674 3.58,16.998 4.742,8.493 13.988,14.171 23.793,14.045 36.47,0.023 72.986,-0.011 109.455,0.012 5.507,-0.012 10.511,0.399 15.779,-1.597 8.755,-2.906 15.698,-10.738 17.613,-19.745 1.083,-5.29 0.798,-11.161 0.809,-16.553 V 59.034 c 0,-5.039 -0.558,-9.964 -2.724,-14.57 -4.469,-9.348 -14.136,-15.835 -24.613,-15.642 -28.867,-0.045 -57.767,0.012 -86.633,-0.022 -0.056,9.405 -0.045,18.822 -0.011,28.238 23.564,0 47.118,0.035 70.683,-0.022 5.073,-0.274 10.91,2.291 13.247,6.965 1.322,2.383 1.539,4.926 1.596,7.582 -0.023,28.512 -0.011,57.013 -0.011,85.526 0.228,5.278 -2.326,9.987 -7,12.495 -3.899,2.268 -8.072,1.687 -12.415,1.767 -26.974,-0.068 -53.981,0.034 -80.943,-0.057 -7.719,0.194 -14.148,-6.521 -13.909,-14.205 -0.114,-40.962 0,-82.152 -0.057,-123.136 0.217,-8.14 -0.046,-15.858 4.674,-22.904 3.58,-5.825 9.634,-8.778 16.143,-10.067 7.696,-1.242 15.06,-0.946 22.79,-0.957 23.564,-0.011 47.118,0.011 70.682,-0.023 11.72,-0.103 23.132,3.694 32.754,10.318 10.317,7.604 18.321,18.092 22.003,30.45 2.542,8.357 2.496,16.474 2.542,25.104 0,32.685 0.012,65.359 0,98.044 -0.046,5.609 -0.102,11.332 -0.969,16.884"
               style="fill:#46d593;fill-opacity:1;fill-rule:nonzero;stroke:none"
               id="path28"
            />
         </g>
      </g>
   </g>
</svg>
